# xmcd
#
# Track frame offsets:
#	150
#	20518
#	37838
#	53195
#	73342
#	88291
#	104949
#	120876
#	134579
#	147745
#	163059
#	179311
#	194854
#
# Disc length: 2812 seconds
#
# Revision: 0
# Processed by: cddbd v1.5.1PL0 Copyright (c) Steve Scherf et al.
# Submitted via: audiograbber 1.82.01
#
DISCID=cf0afa0d
DTITLE=Jm - Album
DYEAR=1900
DGENRE=
TTITLE0=Beijo Com Cerveja
TTITLE1=Coisa Feita
TTITLE2=Carro Hotel
TTITLE3=O Acidente
TTITLE4=O Amor Se Vai (Sevai, Se Vai)
TTITLE5=Loucuras De Amor
TTITLE6=Esperando Por Ela
TTITLE7=15 Dias De Férias
TTITLE8=Devolva O Silicone
TTITLE9=Ladrão De Namorada
TTITLE10=Bye, Bye
TTITLE11=Ninguém é De Ninguém
TTITLE12=Feliz Aniversário
EXTD=
EXTT0=
EXTT1=
EXTT2=
EXTT3=
EXTT4=
EXTT5=
EXTT6=
EXTT7=
EXTT8=
EXTT9=
EXTT10=
EXTT11=
EXTT12=
PLAYORDER=
